<?xml version="1.0" encoding="iso-8859-1"?>
<!-- Generator: Adobe Illustrator 19.0.0, SVG Export Plug-In . SVG Version: 6.00 Build 0)  -->
<svg version="1.1" id="Layer_1" xmlns="http://www.w3.org/2000/svg" xmlns:xlink="http://www.w3.org/1999/xlink" x="0px" y="0px"
	 viewBox="0 0 512 512" style="enable-background:new 0 0 512 512;" xml:space="preserve">
<rect x="187.317" y="398.052" style="fill:#78B9EB;" width="137.366" height="74.927"/>
<rect y="42.154" style="fill:#0052B4;" width="512" height="374.634"/>
<rect x="256" y="42.154" style="fill:#003778;" width="256" height="374.634"/>
<rect x="143.61" y="454.247" style="fill:#AED5F3;" width="224.78" height="37.463"/>
<rect x="256" y="454.247" style="fill:#93C7EF;" width="112.39" height="37.463"/>
<path style="fill:#FFC170;" d="M364.553,106.179C347.673,44.665,284.164,7.905,222.3,24.12
	c-30.074,7.884-55.33,27.095-71.113,54.096s-20.135,58.433-12.252,88.507l0.338,1.286l32.81,78.013v80.24h137.679v-60.177h61.728
	v-52.118l34.361-8.592L364.553,106.179z"/>
<path style="fill:#FF9811;" d="M364.553,106.179C350.75,55.878,305.766,22.137,256,20.37v305.891h53.764v-60.177h61.728v-52.118
	l34.361-8.59L364.553,106.179z"/>
<rect y="303.931" style="fill:#78B9EB;" width="512" height="38.4"/>
<g>
</g>
<g>
</g>
<g>
</g>
<g>
</g>
<g>
</g>
<g>
</g>
<g>
</g>
<g>
</g>
<g>
</g>
<g>
</g>
<g>
</g>
<g>
</g>
<g>
</g>
<g>
</g>
<g>
</g>
</svg>
