<?xml version="1.0" encoding="iso-8859-1"?>
<!-- Generator: Adobe Illustrator 19.0.0, SVG Export Plug-In . SVG Version: 6.00 Build 0)  -->
<svg version="1.1" id="Layer_1" xmlns="http://www.w3.org/2000/svg" xmlns:xlink="http://www.w3.org/1999/xlink" x="0px" y="0px"
	 viewBox="0 0 512 512" style="enable-background:new 0 0 512 512;" xml:space="preserve">
<circle style="fill:#FFEDB5;" cx="256" cy="256" r="256"/>
<path style="fill:#FEE187;" d="M175.371,393.502l115.341,116.146c96.477-13.081,175.869-79.898,207.057-169.329L292.447,136.447
	L175.371,393.502z"/>
<path style="fill:#FC6238;" d="M199.111,341.333c0-31.418,25.471-142.222,56.889-142.222s56.889,110.804,56.889,142.222
	S287.418,369.778,256,369.778S199.111,372.752,199.111,341.333z"/>
<path style="fill:#E03A00;" d="M256,199.111c-0.191,0-0.383,0.022-0.574,0.031V369.78c0.191,0,0.381-0.002,0.574-0.002
	c31.418,0,56.889,2.974,56.889-28.444S287.418,199.111,256,199.111z"/>
<path style="fill:#D48B07;" d="M186.756,398.222h138.487c8.887,0,16.089-7.204,16.089-16.089v-24.709
	c0-8.887-7.204-16.089-16.089-16.089H186.756c-8.887,0-16.091,7.204-16.091,16.089v24.709
	C170.667,391.018,177.871,398.222,186.756,398.222z"/>
<path style="fill:#AD6B00;" d="M325.242,341.333h-69.818v56.889h69.818c8.887,0,16.089-7.204,16.089-16.089v-24.709
	C341.333,348.538,334.129,341.333,325.242,341.333z"/>
<path style="fill:#E03A00;" d="M215.2,301.511h81.598c8.887,0,16.091-7.204,16.091-16.089v-1.953
	c0-8.887-7.204-16.089-16.091-16.089H215.2c-8.887,0-16.091,7.204-16.091,16.089v1.953
	C199.111,294.307,206.315,301.511,215.2,301.511z"/>
<path style="fill:#940030;" d="M296.798,267.378h-41.374v34.133h41.374c8.887,0,16.089-7.204,16.089-16.089v-1.953
	C312.889,274.582,305.685,267.378,296.798,267.378z"/>
<circle style="fill:#E03A00;" cx="256" cy="170.667" r="49.993"/>
<path style="fill:#940030;" d="M256,120.673c-0.193,0-0.383,0.012-0.574,0.014v99.957c0.191,0.002,0.381,0.014,0.574,0.014
	c27.61,0,49.993-22.383,49.993-49.993C305.993,143.057,283.61,120.673,256,120.673z"/>
<g>
</g>
<g>
</g>
<g>
</g>
<g>
</g>
<g>
</g>
<g>
</g>
<g>
</g>
<g>
</g>
<g>
</g>
<g>
</g>
<g>
</g>
<g>
</g>
<g>
</g>
<g>
</g>
<g>
</g>
</svg>
