<?xml version="1.0" encoding="iso-8859-1"?>
<!-- Generator: Adobe Illustrator 19.0.0, SVG Export Plug-In . SVG Version: 6.00 Build 0)  -->
<svg version="1.1" id="Layer_1" xmlns="http://www.w3.org/2000/svg" xmlns:xlink="http://www.w3.org/1999/xlink" x="0px" y="0px"
	 viewBox="0 0 290.626 290.626" style="enable-background:new 0 0 290.626 290.626;" xml:space="preserve">
<g>
	<g>
		<polygon style="fill:#F9BA48;" points="117.189,18.75 159.376,18.75 173.438,42.188 173.438,131.25 187.501,112.5 187.501,37.5 
			168.751,4.688 135.939,4.688 117.189,9.375 		"/>
		<rect x="201.563" y="112.5" style="fill:#F9BA48;" width="65.625" height="9.375"/>
		<rect x="210.938" y="32.813" style="fill:#F9BA48;" width="46.875" height="18.75"/>
		<rect x="225.001" y="18.75" style="fill:#F9BA48;" width="18.75" height="56.25"/>
		<circle style="fill:#F9BA48;" cx="56.251" cy="121.875" r="9.375"/>
		<path style="fill:#333333;" d="M285.095,257.813l-2.512-12.558c-1.163-5.813-4.519-10.828-9.68-14.269
			c-2.212-1.472-3.783-3.595-4.73-5.986h8.391v-9.375h-9.375h-1.336c-4.402-12.989-7.087-29.025-7.852-46.875h9.188v-9.375h-9.375
			V150h9.375v-9.375h-5.784l8.466-14.114c1.312-2.184,2.006-4.688,2.006-7.233v-20.84c0-7.753-6.309-14.063-14.063-14.063h-4.687
			V70.313h-4.688V56.25h14.062V28.125h-14.062V14.063h-28.125v14.063h-14.063V56.25h14.062v14.063h-4.688v14.063h-4.688
			c-7.753,0-14.062,6.309-14.062,14.063v20.841c0,2.545,0.694,5.048,2.006,7.238l8.466,14.109h-5.784V150h9.375v9.375h-9.375v9.375
			h9.187c-0.764,17.85-3.45,33.886-7.852,46.875h-1.336h-9.375V225h8.377c-0.966,2.409-2.587,4.57-4.941,6.141
			c-4.936,3.291-8.297,8.302-9.459,14.119l-2.508,12.553h-5.531v32.813h112.5v-32.813L285.095,257.813L285.095,257.813z
			 M215.626,46.875V37.5h14.062V23.438h9.375V37.5h14.062v9.375h-14.062v23.438h-9.375V46.875H215.626z M225.001,79.688h18.75v4.688
			h-18.75V79.688z M206.251,119.278v-20.84c0-2.583,2.105-4.688,4.687-4.688h4.688h37.5h4.687c2.583,0,4.688,2.105,4.688,4.688
			v20.841c0,0.848-0.23,1.683-0.67,2.414l-11.358,18.933h-32.189l-11.362-18.933C206.481,120.961,206.251,120.127,206.251,119.278z
			 M220.313,150h28.125v9.375h-28.125V150z M220.131,168.75h28.491c0.722,17.527,3.216,33.534,7.341,46.875h-43.176
			C216.92,202.284,219.409,186.277,220.131,168.75z M195.362,247.097c0.675-3.361,2.616-6.258,5.691-8.306
			c4.866-3.244,8.189-8.203,9.389-13.786h47.869c1.209,5.588,4.57,10.575,9.614,13.941c2.85,1.898,4.791,4.795,5.466,8.156
			l2.142,10.711h-82.312L195.362,247.097z M281.251,281.25h-93.75v-14.063h93.75V281.25z"/>
		<rect x="229.688" y="112.5" style="fill:#333333;" width="9.375" height="9.375"/>
		<rect x="248.438" y="112.5" style="fill:#333333;" width="9.375" height="9.375"/>
		<rect x="210.938" y="112.5" style="fill:#333333;" width="9.375" height="9.375"/>
		<path style="fill:#333333;" d="M114.085,66.787L98.439,82.434v31.364l10.472,17.452h-5.784v9.375h8.377
			c-0.966,2.409-2.587,4.57-4.941,6.141c-4.936,3.291-8.297,8.302-9.459,14.119l-2.508,12.553h-5.531v32.813h112.5v-32.813h-5.531
			l-2.512-12.558c-1.163-5.813-4.519-10.828-9.68-14.269c-2.212-1.472-3.783-3.595-4.73-5.986h8.391v-9.375h-5.784l10.472-17.452
			V36.253L171.47,0h-35.531l-23.438,5.714v9.192L91.074,19.19L74.359,41.484l11.719,29.302L114.085,66.787z M192.188,196.875h-93.75
			v-14.063h93.75V196.875z M178.862,154.566c2.85,1.898,4.791,4.795,5.466,8.156l2.142,10.716h-82.312l2.142-10.716
			c0.675-3.361,2.616-6.258,5.691-8.306c4.866-3.239,8.189-8.203,9.389-13.786h47.869
			C170.457,146.217,173.823,151.205,178.862,154.566z M96.428,27.684l25.448-5.091v-9.558l5.302-1.327l4.57,9.136l8.386-4.195
			l-3.638-7.275h0.019h11.667l-2.63,7.894l8.892,2.967l3.623-10.861h7.964l6.314,11.048l-9.764,3.253l2.967,8.892l11.541-3.848
			l5.723,10.027v4.748l-10.856,3.619l2.967,8.892l7.889-2.625v16.931h-9.375v9.375h9.375V93.75h-9.375v9.375h9.375v8.077
			l-12.028,20.048H119.84l-8.437-14.063h38.598v-9.375h-42.187V86.316l18.75-18.75V55.533L92.05,60.464l-7.031-17.573L96.428,27.684
			z"/>
		<rect x="159.376" y="107.813" style="fill:#333333;" width="9.375" height="9.375"/>
		<rect x="126.564" y="28.125" style="fill:#333333;" width="9.375" height="9.375"/>
		<path style="fill:#333333;" d="M104.457,245.255c-1.162-5.813-4.519-10.828-9.68-14.269c-2.212-1.472-3.783-3.595-4.73-5.986
			h8.391v-9.375h-9.375h-1.336c-4.402-12.989-7.087-29.025-7.852-46.875h9.187v-9.375h-9.375v-14.578
			c5.789-5.92,9.375-14.006,9.375-22.922c0-18.094-14.719-32.813-32.812-32.813s-32.812,14.719-32.812,32.813
			c0,8.916,3.586,17.002,9.375,22.922v14.578h-9.375v9.375h9.187c-0.764,17.85-3.45,33.886-7.852,46.875h-1.336h-9.375V225h8.377
			c-0.966,2.409-2.587,4.57-4.941,6.141c-4.936,3.291-8.297,8.302-9.459,14.119l-2.508,12.553h-5.53v32.813h112.5v-32.813h-5.531
			L104.457,245.255z M56.251,98.438c12.923,0,23.437,10.514,23.437,23.438s-10.514,23.438-23.437,23.438
			S32.814,134.8,32.814,121.876S43.328,98.438,56.251,98.438z M42.189,151.477c4.27,2.039,9.023,3.211,14.062,3.211
			s9.792-1.172,14.062-3.211v7.898H42.189V151.477z M42.006,168.75h28.491c0.722,17.527,3.216,33.534,7.341,46.875H34.665
			C38.795,202.284,41.284,186.277,42.006,168.75z M17.237,247.097c0.675-3.361,2.616-6.258,5.691-8.306
			c4.866-3.244,8.189-8.203,9.389-13.786h47.869c1.209,5.588,4.57,10.575,9.614,13.941c2.85,1.898,4.791,4.795,5.466,8.156
			l2.142,10.711H15.095L17.237,247.097z M103.126,281.25H9.376v-14.063h93.75V281.25z"/>
	</g>
</g>
<g>
</g>
<g>
</g>
<g>
</g>
<g>
</g>
<g>
</g>
<g>
</g>
<g>
</g>
<g>
</g>
<g>
</g>
<g>
</g>
<g>
</g>
<g>
</g>
<g>
</g>
<g>
</g>
<g>
</g>
</svg>
